<?xml version="1.0" encoding="UTF-8"?>
<svg xmlns="http://www.w3.org/2000/svg" width="99" height="23" viewBox="0 0 99 23" fill="none">
  <path d="M0.022 17V15.746C0.432667 15.746 0.762667 15.6287 1.012 15.394C1.26133 15.1593 1.46667 14.8513 1.628 14.47C1.78933 14.074 1.958 13.634 2.134 13.15L6.512 1.204H7.7L12.474 13.37C12.562 13.6193 12.6793 13.9713 12.826 14.426C12.9727 14.8807 13.0533 15.2767 13.068 15.614C13.3173 15.5993 13.5593 15.5847 13.794 15.57C14.0287 15.5553 14.234 15.548 14.41 15.548V17H8.8V15.79C9.25467 15.79 9.56267 15.6947 9.724 15.504C9.88533 15.3133 9.95133 15.064 9.922 14.756C9.90733 14.448 9.834 14.1327 9.702 13.81L9.152 12.314L4.048 12.402L3.564 13.876C3.476 14.1253 3.37333 14.4113 3.256 14.734C3.13867 15.042 3.02133 15.3207 2.904 15.57C3.168 15.5553 3.454 15.5407 3.762 15.526C4.08467 15.5113 4.34133 15.504 4.532 15.504V17H0.022ZM4.532 10.994H8.668L7.48 7.76C7.304 7.26133 7.13533 6.76267 6.974 6.264C6.82733 5.75067 6.70267 5.28133 6.6 4.856H6.556C6.468 5.14933 6.358 5.53067 6.226 6C6.10867 6.46933 5.94 7.00467 5.72 7.606L4.532 10.994ZM15.0105 15.834C15.4359 15.834 15.7365 15.746 15.9125 15.57C16.1032 15.3793 16.2132 15.1153 16.2425 14.778C16.2865 14.4407 16.3085 14.0593 16.3085 13.634V4.13C16.3085 3.88067 16.3159 3.60933 16.3305 3.316C16.3452 3.008 16.3672 2.69267 16.3965 2.37C16.1472 2.38467 15.8759 2.39933 15.5825 2.414C15.2892 2.42867 15.0399 2.44333 14.8345 2.458V1.028C15.5092 1.028 16.0592 0.998666 16.4845 0.94C16.9245 0.866666 17.2619 0.778666 17.4965 0.675999C17.7459 0.573333 17.9219 0.477999 18.0245 0.389999H19.0145L19.0365 13.854C19.0365 14.0887 19.0292 14.3747 19.0145 14.712C18.9999 15.0347 18.9705 15.35 18.9265 15.658C19.1759 15.6287 19.4325 15.614 19.6965 15.614C19.9605 15.5993 20.1805 15.592 20.3565 15.592V17H15.0105V15.834ZM27.1508 17.352C26.0948 17.352 25.1561 17.1173 24.3348 16.648C23.5134 16.164 22.8754 15.4893 22.4207 14.624C21.9661 13.744 21.7388 12.71 21.7388 11.522C21.7388 10.4953 21.9661 9.53467 22.4207 8.64C22.8754 7.74533 23.5134 7.02667 24.3348 6.484C25.1708 5.92667 26.1388 5.648 27.2388 5.648C27.8548 5.648 28.4488 5.736 29.0208 5.912C29.5928 6.088 30.1061 6.38133 30.5608 6.792C31.0154 7.20267 31.3748 7.74533 31.6388 8.42C31.9174 9.09467 32.0494 9.916 32.0348 10.884L24.6428 11.016C24.6428 11.9253 24.7454 12.732 24.9508 13.436C25.1708 14.1253 25.5228 14.6753 26.0068 15.086C26.4908 15.482 27.1288 15.68 27.9208 15.68C28.2728 15.68 28.6468 15.6213 29.0428 15.504C29.4534 15.372 29.8568 15.1813 30.2528 14.932C30.6488 14.668 31.0008 14.3453 31.3088 13.964L32.1448 14.734C31.6608 15.438 31.1254 15.9807 30.5388 16.362C29.9521 16.7433 29.3654 17 28.7788 17.132C28.1921 17.2787 27.6494 17.352 27.1508 17.352ZM24.7528 9.696H29.3288C29.3141 9.10933 29.2261 8.618 29.0648 8.222C28.9181 7.81133 28.6981 7.50333 28.4048 7.298C28.1114 7.078 27.7521 6.968 27.3268 6.968C26.6081 6.968 26.0288 7.21 25.5888 7.694C25.1634 8.16333 24.8848 8.83067 24.7528 9.696ZM33.5552 17V15.834C33.8925 15.7167 34.1932 15.5333 34.4572 15.284C34.7212 15.02 35.0218 14.69 35.3592 14.294L37.3612 11.874C37.1412 11.5953 36.8992 11.2947 36.6352 10.972C36.3858 10.6493 36.1365 10.3413 35.8872 10.048C35.6525 9.74 35.4252 9.46133 35.2052 9.212C34.9705 8.904 34.7285 8.58133 34.4792 8.244C34.2445 7.90667 34.0832 7.61333 33.9952 7.364L33.2472 7.408V6H37.9992V7.166C37.5152 7.18067 37.2732 7.32 37.2732 7.584C37.2878 7.83333 37.4712 8.18533 37.8232 8.64L38.9232 10.004L40.1552 8.53C40.3458 8.29533 40.5218 8.08267 40.6832 7.892C40.8592 7.68667 41.0352 7.496 41.2112 7.32L39.9792 7.408V6H43.7632V7.166C43.4405 7.28333 43.1472 7.43 42.8832 7.606C42.6192 7.782 42.3698 7.99467 42.1352 8.244C41.9005 8.47867 41.6438 8.772 41.3652 9.124L39.8032 10.994L42.5312 14.228C42.7218 14.4627 42.8978 14.69 43.0592 14.91C43.2352 15.13 43.3965 15.372 43.5432 15.636L44.3792 15.592V17H39.4952V15.834C39.9352 15.8193 40.1845 15.7167 40.2432 15.526C40.3165 15.3353 40.2138 15.0787 39.9352 14.756L38.2852 12.886L36.9652 14.558C36.8478 14.7193 36.6938 14.91 36.5032 15.13C36.3125 15.3353 36.1365 15.5113 35.9752 15.658L37.2072 15.592V17H33.5552ZM51.6323 17V15.79C52.0429 15.7753 52.3583 15.7093 52.5783 15.592C52.7983 15.46 52.9523 15.24 53.0403 14.932C53.1283 14.6093 53.1723 14.1693 53.1723 13.612V4.834C53.1723 4.46733 53.1796 4.11533 53.1943 3.778C53.2236 3.44067 53.2456 3.17667 53.2603 2.986C53.0109 3.00067 52.7249 3.01533 52.4023 3.03C52.0796 3.03 51.8229 3.03733 51.6323 3.052V1.6H57.4843V2.81C57.0883 2.82467 56.7729 2.898 56.5383 3.03C56.3183 3.14733 56.1643 3.36 56.0763 3.668C55.9883 3.976 55.9443 4.416 55.9443 4.988V13.744C55.9443 14.14 55.9369 14.5067 55.9223 14.844C55.9076 15.1667 55.8856 15.4233 55.8563 15.614L59.2003 15.592C60.0803 15.5773 60.7623 15.2767 61.2463 14.69C61.7303 14.1033 61.9723 13.194 61.9723 11.962H63.2043L63.0723 17H51.6323ZM69.7543 17.352C68.6983 17.352 67.7596 17.1173 66.9383 16.648C66.1169 16.164 65.4789 15.4893 65.0243 14.624C64.5696 13.744 64.3423 12.71 64.3423 11.522C64.3423 10.4953 64.5696 9.53467 65.0243 8.64C65.4789 7.74533 66.1169 7.02667 66.9383 6.484C67.7743 5.92667 68.7423 5.648 69.8423 5.648C70.4583 5.648 71.0523 5.736 71.6243 5.912C72.1963 6.088 72.7096 6.38133 73.1643 6.792C73.6189 7.20267 73.9783 7.74533 74.2423 8.42C74.5209 9.09467 74.6529 9.916 74.6383 10.884L67.2463 11.016C67.2463 11.9253 67.3489 12.732 67.5543 13.436C67.7743 14.1253 68.1263 14.6753 68.6103 15.086C69.0943 15.482 69.7323 15.68 70.5243 15.68C70.8763 15.68 71.2503 15.6213 71.6463 15.504C72.0569 15.372 72.4603 15.1813 72.8563 14.932C73.2523 14.668 73.6043 14.3453 73.9123 13.964L74.7483 14.734C74.2643 15.438 73.7289 15.9807 73.1423 16.362C72.5556 16.7433 71.9689 17 71.3823 17.132C70.7956 17.2787 70.2529 17.352 69.7543 17.352ZM67.3563 9.696H71.9323C71.9176 9.10933 71.8296 8.618 71.6683 8.222C71.5216 7.81133 71.3016 7.50333 71.0083 7.298C70.7149 7.078 70.3556 6.968 69.9303 6.968C69.2116 6.968 68.6323 7.21 68.1923 7.694C67.7669 8.16333 67.4883 8.83067 67.3563 9.696ZM80.4267 17.066L77.0607 9.586C76.8847 9.16067 76.7527 8.816 76.6647 8.552C76.5767 8.288 76.5107 8.068 76.4667 7.892C76.4373 7.716 76.408 7.54 76.3787 7.364L75.5207 7.408V6H80.2947V7.166C79.9427 7.166 79.708 7.26133 79.5907 7.452C79.488 7.628 79.4587 7.87 79.5027 8.178C79.5613 8.47133 79.6567 8.78667 79.7887 9.124L81.1087 12.292C81.226 12.556 81.3433 12.8347 81.4607 13.128C81.578 13.4067 81.688 13.6927 81.7907 13.986H81.8127C81.9153 13.7073 82.018 13.4287 82.1207 13.15C82.238 12.8567 82.3407 12.5633 82.4287 12.27L83.6387 8.882C83.7707 8.51533 83.8953 8.21467 84.0127 7.98C84.13 7.74533 84.24 7.53267 84.3427 7.342L82.9787 7.408V6H86.9167V7.166C86.5793 7.19533 86.286 7.35667 86.0367 7.65C85.7873 7.92867 85.5673 8.27333 85.3767 8.684C85.186 9.08 85.01 9.49067 84.8487 9.916L82.0107 17.066H80.4267ZM90.0482 22.962C89.5202 22.962 89.0729 22.8153 88.7062 22.522C88.3396 22.2287 88.1562 21.8253 88.1562 21.312C88.1562 20.96 88.2736 20.6447 88.5082 20.366C88.7429 20.102 89.0436 19.9627 89.4102 19.948C89.7329 19.9333 89.9896 20.036 90.1802 20.256C90.3856 20.4907 90.4882 20.7693 90.4882 21.092C90.4882 21.136 90.4882 21.18 90.4882 21.224C90.4882 21.2827 90.4809 21.3413 90.4662 21.4C90.4956 21.4 90.5469 21.4 90.6202 21.4C90.7669 21.3707 90.9209 21.2607 91.0822 21.07C91.2582 20.894 91.4196 20.652 91.5662 20.344C91.7422 20.0067 91.9256 19.5887 92.1162 19.09C92.3069 18.606 92.4902 18.0633 92.6662 17.462L89.2122 10.356C88.8162 9.53467 88.5449 8.904 88.3982 8.464C88.2662 8.024 88.1709 7.65733 88.1122 7.364L87.1002 7.408V6H92.2702V7.166H92.2262C91.6689 7.21 91.3609 7.42267 91.3022 7.804C91.2436 8.17067 91.3389 8.62533 91.5882 9.168L93.8982 14.294C94.1036 13.722 94.3309 13.018 94.5802 12.182C94.8442 11.346 95.1376 10.466 95.4602 9.542C95.5336 9.30733 95.6216 9.05067 95.7242 8.772C95.8416 8.47867 95.9589 8.2 96.0762 7.936C96.1936 7.672 96.3109 7.474 96.4282 7.342L95.0862 7.408V6H98.8482V7.166C98.3642 7.298 97.9756 7.59867 97.6822 8.068C97.4036 8.52267 97.1396 9.09467 96.8902 9.784L94.1402 17.572C93.7149 18.7747 93.3189 19.772 92.9522 20.564C92.5856 21.3707 92.1749 21.972 91.7202 22.368C91.2802 22.764 90.7229 22.962 90.0482 22.962Z" fill="#313131"></path>
</svg>
